<mxfile host="app.diagrams.net" agent="Mozilla/5.0 (Macintosh; Intel Mac OS X 10_15_7) AppleWebKit/537.36 (KHTML, like Gecko) Chrome/128.0.0.0 Safari/537.36" version="24.7.14">
  <diagram name="Page-1" id="sIqW20rJxdNXZ52dNXJ8">
    <mxGraphModel dx="3033" dy="1223" grid="1" gridSize="10" guides="1" tooltips="1" connect="1" arrows="1" fold="1" page="1" pageScale="1" pageWidth="827" pageHeight="1169" math="0" shadow="0">
      <root>
        <mxCell id="0" />
        <mxCell id="1" parent="0" />
        <mxCell id="-dxQjDYS7bWkE5Er575O-1" value="Google云" style="whiteSpace=wrap;html=1;fillColor=#FFD470;gradientColor=none;fontSize=14;strokeColor=none;verticalAlign=top;" vertex="1" parent="1">
          <mxGeometry x="179" y="98" width="471" height="362" as="geometry" />
        </mxCell>
        <mxCell id="-dxQjDYS7bWkE5Er575O-2" value="新加坡节点" style="rounded=1;whiteSpace=wrap;html=1;verticalAlign=top;" vertex="1" parent="1">
          <mxGeometry x="195.9" y="290" width="444.1" height="137.5" as="geometry" />
        </mxCell>
        <mxCell id="-dxQjDYS7bWkE5Er575O-3" value="沙特节点" style="rounded=1;whiteSpace=wrap;html=1;verticalAlign=top;" vertex="1" parent="1">
          <mxGeometry x="192.45000000000002" y="141.85" width="444.1" height="137.5" as="geometry" />
        </mxCell>
        <mxCell id="-dxQjDYS7bWkE5Er575O-4" value="厦门公司" style="whiteSpace=wrap;html=1;fillColor=#f8cecc;fontSize=14;strokeColor=none;verticalAlign=top;" vertex="1" parent="1">
          <mxGeometry x="940" y="60" width="740" height="400" as="geometry" />
        </mxCell>
        <mxCell id="-dxQjDYS7bWkE5Er575O-5" value="明泰工厂" style="whiteSpace=wrap;html=1;fillColor=#d5e8d4;fontSize=14;strokeColor=none;verticalAlign=top;" vertex="1" parent="1">
          <mxGeometry x="1019" y="720" width="582" height="470" as="geometry" />
        </mxCell>
        <mxCell id="-dxQjDYS7bWkE5Er575O-6" value="武汉公司" style="whiteSpace=wrap;html=1;fillColor=#dae8fc;fontSize=14;strokeColor=none;verticalAlign=top;" vertex="1" parent="1">
          <mxGeometry x="-810" y="700" width="1640" height="970" as="geometry" />
        </mxCell>
        <mxCell id="-dxQjDYS7bWkE5Er575O-10" value="" style="verticalLabelPosition=bottom;aspect=fixed;html=1;verticalAlign=top;strokeColor=none;shape=mxgraph.citrix.firewall;fillColor=#66B2FF;gradientColor=#0066CC;fontSize=14;" vertex="1" parent="1">
          <mxGeometry x="-500" y="894" width="75" height="93" as="geometry" />
        </mxCell>
        <mxCell id="-dxQjDYS7bWkE5Er575O-11" style="edgeStyle=none;rounded=0;html=1;startSize=10;endSize=10;jettySize=auto;orthogonalLoop=1;fontSize=14;endArrow=none;endFill=0;strokeWidth=2;" edge="1" parent="1" source="-dxQjDYS7bWkE5Er575O-14" target="-dxQjDYS7bWkE5Er575O-44">
          <mxGeometry relative="1" as="geometry">
            <mxPoint x="1060.9999999999995" y="217.95943894389438" as="targetPoint" />
          </mxGeometry>
        </mxCell>
        <mxCell id="-dxQjDYS7bWkE5Er575O-12" style="edgeStyle=none;rounded=0;html=1;startSize=10;endSize=10;jettySize=auto;orthogonalLoop=1;fontSize=14;endArrow=none;endFill=0;strokeWidth=2;" edge="1" parent="1" source="-dxQjDYS7bWkE5Er575O-14" target="-dxQjDYS7bWkE5Er575O-39">
          <mxGeometry relative="1" as="geometry">
            <mxPoint x="1284" y="221" as="targetPoint" />
          </mxGeometry>
        </mxCell>
        <mxCell id="-dxQjDYS7bWkE5Er575O-13" style="edgeStyle=none;rounded=0;html=1;startSize=10;endSize=10;jettySize=auto;orthogonalLoop=1;fontSize=14;endArrow=none;endFill=0;strokeWidth=2;exitX=0;exitY=0.75;exitDx=0;exitDy=0;entryX=0.045;entryY=0.768;entryDx=0;entryDy=0;entryPerimeter=0;" edge="1" parent="1" source="-dxQjDYS7bWkE5Er575O-39" target="-dxQjDYS7bWkE5Er575O-40">
          <mxGeometry relative="1" as="geometry">
            <mxPoint x="1470" y="192.0134954058194" as="targetPoint" />
          </mxGeometry>
        </mxCell>
        <mxCell id="-dxQjDYS7bWkE5Er575O-14" value="" style="verticalLabelPosition=bottom;aspect=fixed;html=1;verticalAlign=top;strokeColor=none;shape=mxgraph.citrix.switch;fillColor=#66B2FF;gradientColor=#0066CC;fontSize=14;" vertex="1" parent="1">
          <mxGeometry x="1200" y="230" width="92" height="41.5" as="geometry" />
        </mxCell>
        <mxCell id="-dxQjDYS7bWkE5Er575O-15" value="三顾基础架构拓扑图" style="text;strokeColor=none;fillColor=none;html=1;fontSize=24;fontStyle=1;verticalAlign=middle;align=center;" vertex="1" parent="1">
          <mxGeometry x="499" y="10" width="861" height="40" as="geometry" />
        </mxCell>
        <mxCell id="-dxQjDYS7bWkE5Er575O-17" value="" style="edgeStyle=orthogonalEdgeStyle;rounded=0;orthogonalLoop=1;jettySize=auto;html=1;entryX=1;entryY=0.75;entryDx=0;entryDy=0;endArrow=none;endFill=0;" edge="1" parent="1" source="-dxQjDYS7bWkE5Er575O-18" target="-dxQjDYS7bWkE5Er575O-60">
          <mxGeometry relative="1" as="geometry">
            <mxPoint x="1267.4999999999995" y="1000" as="targetPoint" />
            <Array as="points">
              <mxPoint x="1268" y="985" />
            </Array>
          </mxGeometry>
        </mxCell>
        <mxCell id="-dxQjDYS7bWkE5Er575O-18" value="cctv 192.168.1.X" style="image;points=[];aspect=fixed;html=1;align=center;shadow=0;dashed=0;image=img/lib/allied_telesis/computer_and_terminals/Server_Desktop.svg;" vertex="1" parent="1">
          <mxGeometry x="1244" y="1080" width="47" height="59.58" as="geometry" />
        </mxCell>
        <mxCell id="-dxQjDYS7bWkE5Er575O-19" value="GPU 192.168.100.232" style="image;points=[];aspect=fixed;html=1;align=center;shadow=0;dashed=0;image=img/lib/allied_telesis/computer_and_terminals/Server_Desktop.svg;" vertex="1" parent="1">
          <mxGeometry x="1459" y="860" width="42.599999999999994" height="54" as="geometry" />
        </mxCell>
        <mxCell id="-dxQjDYS7bWkE5Er575O-20" value="harbor 192.168.100.80" style="image;points=[];aspect=fixed;html=1;align=center;shadow=0;dashed=0;image=img/lib/allied_telesis/computer_and_terminals/Server_Desktop.svg;" vertex="1" parent="1">
          <mxGeometry x="1459" y="1107" width="42.599999999999994" height="54" as="geometry" />
        </mxCell>
        <mxCell id="-dxQjDYS7bWkE5Er575O-21" value="jenkins 192.168.100.12" style="image;points=[];aspect=fixed;html=1;align=center;shadow=0;dashed=0;image=img/lib/allied_telesis/computer_and_terminals/Server_Desktop.svg;" vertex="1" parent="1">
          <mxGeometry x="1459" y="1016" width="42.599999999999994" height="54" as="geometry" />
        </mxCell>
        <mxCell id="-dxQjDYS7bWkE5Er575O-22" value="" style="edgeStyle=orthogonalEdgeStyle;rounded=0;orthogonalLoop=1;jettySize=auto;html=1;endArrow=none;endFill=0;" edge="1" parent="1" source="-dxQjDYS7bWkE5Er575O-23" target="-dxQjDYS7bWkE5Er575O-60">
          <mxGeometry relative="1" as="geometry">
            <mxPoint x="1379.0000000000005" y="967" as="targetPoint" />
          </mxGeometry>
        </mxCell>
        <mxCell id="-dxQjDYS7bWkE5Er575O-23" value="GPU 192.168.100.233" style="image;points=[];aspect=fixed;html=1;align=center;shadow=0;dashed=0;image=img/lib/allied_telesis/computer_and_terminals/Server_Desktop.svg;" vertex="1" parent="1">
          <mxGeometry x="1459" y="940" width="42.599999999999994" height="54" as="geometry" />
        </mxCell>
        <mxCell id="-dxQjDYS7bWkE5Er575O-24" value="KVM 192.168.100.10" style="image;points=[];aspect=fixed;html=1;align=center;shadow=0;dashed=0;image=img/lib/allied_telesis/computer_and_terminals/Server_Desktop.svg;" vertex="1" parent="1">
          <mxGeometry x="1459" y="780" width="42.599999999999994" height="54" as="geometry" />
        </mxCell>
        <mxCell id="-dxQjDYS7bWkE5Er575O-25" value="freeipa&lt;div&gt;192.168.110.230&lt;/div&gt;" style="image;points=[];aspect=fixed;html=1;align=center;shadow=0;dashed=0;image=img/lib/allied_telesis/computer_and_terminals/Server_Desktop.svg;" vertex="1" parent="1">
          <mxGeometry x="990" y="360" width="42.599999999999994" height="54" as="geometry" />
        </mxCell>
        <mxCell id="-dxQjDYS7bWkE5Er575O-26" value="rocketchat&lt;div&gt;192.168.110.240&lt;/div&gt;" style="image;points=[];aspect=fixed;html=1;align=center;shadow=0;dashed=0;image=img/lib/allied_telesis/computer_and_terminals/Server_Desktop.svg;" vertex="1" parent="1">
          <mxGeometry x="1235" y="360" width="42.599999999999994" height="54" as="geometry" />
        </mxCell>
        <mxCell id="-dxQjDYS7bWkE5Er575O-27" value="samba&lt;div&gt;192.168.110.234&lt;/div&gt;" style="image;points=[];aspect=fixed;html=1;align=center;shadow=0;dashed=0;image=img/lib/allied_telesis/computer_and_terminals/Server_Desktop.svg;" vertex="1" parent="1">
          <mxGeometry x="1112" y="360" width="42.599999999999994" height="54" as="geometry" />
        </mxCell>
        <mxCell id="-dxQjDYS7bWkE5Er575O-28" value="mail.sangoai.cn&lt;div&gt;192.168.110.247&lt;/div&gt;" style="image;points=[];aspect=fixed;html=1;align=center;shadow=0;dashed=0;image=img/lib/allied_telesis/computer_and_terminals/Server_Desktop.svg;" vertex="1" parent="1">
          <mxGeometry x="1602" y="360" width="42.599999999999994" height="54" as="geometry" />
        </mxCell>
        <mxCell id="-dxQjDYS7bWkE5Er575O-29" value="openvpn&lt;div&gt;192.168.110.248&lt;/div&gt;" style="image;points=[];aspect=fixed;html=1;align=center;shadow=0;dashed=0;image=img/lib/allied_telesis/computer_and_terminals/Server_Desktop.svg;" vertex="1" parent="1">
          <mxGeometry x="1480" y="360" width="42.599999999999994" height="54" as="geometry" />
        </mxCell>
        <mxCell id="-dxQjDYS7bWkE5Er575O-30" value="gerrit&lt;div&gt;192.168.110.242&lt;/div&gt;" style="image;points=[];aspect=fixed;html=1;align=center;shadow=0;dashed=0;image=img/lib/allied_telesis/computer_and_terminals/Server_Desktop.svg;" vertex="1" parent="1">
          <mxGeometry x="1357" y="360" width="42.599999999999994" height="54" as="geometry" />
        </mxCell>
        <mxCell id="-dxQjDYS7bWkE5Er575O-31" style="edgeStyle=none;rounded=0;html=1;startSize=10;endSize=10;jettySize=auto;orthogonalLoop=1;fontSize=14;endArrow=none;endFill=0;strokeWidth=2;exitX=0.179;exitY=0.822;exitDx=0;exitDy=0;exitPerimeter=0;" edge="1" parent="1" source="-dxQjDYS7bWkE5Er575O-14" target="-dxQjDYS7bWkE5Er575O-25">
          <mxGeometry relative="1" as="geometry">
            <mxPoint x="1207" y="262" as="sourcePoint" />
            <mxPoint x="1185" y="225" as="targetPoint" />
          </mxGeometry>
        </mxCell>
        <mxCell id="-dxQjDYS7bWkE5Er575O-32" style="edgeStyle=none;rounded=0;html=1;startSize=10;endSize=10;jettySize=auto;orthogonalLoop=1;fontSize=14;endArrow=none;endFill=0;strokeWidth=2;" edge="1" parent="1" source="-dxQjDYS7bWkE5Er575O-14" target="-dxQjDYS7bWkE5Er575O-27">
          <mxGeometry relative="1" as="geometry">
            <mxPoint x="1190" y="296" as="sourcePoint" />
            <mxPoint x="1043" y="384" as="targetPoint" />
          </mxGeometry>
        </mxCell>
        <mxCell id="-dxQjDYS7bWkE5Er575O-33" style="edgeStyle=none;rounded=0;html=1;startSize=10;endSize=10;jettySize=auto;orthogonalLoop=1;fontSize=14;endArrow=none;endFill=0;strokeWidth=2;" edge="1" parent="1" source="-dxQjDYS7bWkE5Er575O-14" target="-dxQjDYS7bWkE5Er575O-26">
          <mxGeometry relative="1" as="geometry">
            <mxPoint x="1202" y="293.5" as="sourcePoint" />
            <mxPoint x="1055" y="381.5" as="targetPoint" />
          </mxGeometry>
        </mxCell>
        <mxCell id="-dxQjDYS7bWkE5Er575O-34" style="edgeStyle=none;rounded=0;html=1;startSize=10;endSize=10;jettySize=auto;orthogonalLoop=1;fontSize=14;endArrow=none;endFill=0;strokeWidth=2;exitX=0.818;exitY=0.936;exitDx=0;exitDy=0;exitPerimeter=0;" edge="1" parent="1" source="-dxQjDYS7bWkE5Er575O-14" target="-dxQjDYS7bWkE5Er575O-30">
          <mxGeometry relative="1" as="geometry">
            <mxPoint x="1190" y="304" as="sourcePoint" />
            <mxPoint x="1065" y="391.5" as="targetPoint" />
          </mxGeometry>
        </mxCell>
        <mxCell id="-dxQjDYS7bWkE5Er575O-35" style="edgeStyle=none;rounded=0;html=1;startSize=10;endSize=10;jettySize=auto;orthogonalLoop=1;fontSize=14;endArrow=none;endFill=0;strokeWidth=2;" edge="1" parent="1" source="-dxQjDYS7bWkE5Er575O-14" target="-dxQjDYS7bWkE5Er575O-29">
          <mxGeometry relative="1" as="geometry">
            <mxPoint x="1180" y="294" as="sourcePoint" />
            <mxPoint x="1055" y="381.5" as="targetPoint" />
          </mxGeometry>
        </mxCell>
        <mxCell id="-dxQjDYS7bWkE5Er575O-36" style="edgeStyle=none;rounded=0;html=1;startSize=10;endSize=10;jettySize=auto;orthogonalLoop=1;fontSize=14;endArrow=none;endFill=0;strokeWidth=2;exitX=0.997;exitY=0.624;exitDx=0;exitDy=0;exitPerimeter=0;" edge="1" parent="1" source="-dxQjDYS7bWkE5Er575O-14" target="-dxQjDYS7bWkE5Er575O-28">
          <mxGeometry relative="1" as="geometry">
            <mxPoint x="1249" y="301" as="sourcePoint" />
            <mxPoint x="1367" y="382" as="targetPoint" />
          </mxGeometry>
        </mxCell>
        <mxCell id="-dxQjDYS7bWkE5Er575O-37" value="jira&lt;div&gt;192.168.110.235&lt;/div&gt;" style="image;points=[];aspect=fixed;html=1;align=center;shadow=0;dashed=0;image=img/lib/allied_telesis/computer_and_terminals/Server_Desktop.svg;" vertex="1" parent="1">
          <mxGeometry x="1602" y="260" width="42.599999999999994" height="54" as="geometry" />
        </mxCell>
        <mxCell id="-dxQjDYS7bWkE5Er575O-38" style="edgeStyle=none;rounded=0;html=1;startSize=10;endSize=10;jettySize=auto;orthogonalLoop=1;fontSize=14;endArrow=none;endFill=0;strokeWidth=2;entryX=-0.101;entryY=0.632;entryDx=0;entryDy=0;entryPerimeter=0;exitX=1.01;exitY=0.397;exitDx=0;exitDy=0;exitPerimeter=0;" edge="1" parent="1" source="-dxQjDYS7bWkE5Er575O-14" target="-dxQjDYS7bWkE5Er575O-37">
          <mxGeometry relative="1" as="geometry">
            <mxPoint x="1270" y="273" as="sourcePoint" />
            <mxPoint x="1612" y="391" as="targetPoint" />
          </mxGeometry>
        </mxCell>
        <mxCell id="-dxQjDYS7bWkE5Er575O-39" value="AC&lt;div&gt;192.168.110.1&lt;/div&gt;" style="image;html=1;image=img/lib/clip_art/networking/Wireless_Router_128x128.png" vertex="1" parent="1">
          <mxGeometry x="1197.6" y="88" width="80" height="80" as="geometry" />
        </mxCell>
        <mxCell id="-dxQjDYS7bWkE5Er575O-40" value="Client" style="verticalLabelPosition=bottom;aspect=fixed;html=1;verticalAlign=top;strokeColor=none;shape=mxgraph.citrix.laptop_2;fillColor=#66B2FF;gradientColor=#0066CC;fontSize=14;" vertex="1" parent="1">
          <mxGeometry x="960" y="103.39" width="66" height="49.22" as="geometry" />
        </mxCell>
        <mxCell id="-dxQjDYS7bWkE5Er575O-41" value="Client" style="verticalLabelPosition=bottom;aspect=fixed;html=1;verticalAlign=top;strokeColor=none;shape=mxgraph.citrix.laptop_2;fillColor=#66B2FF;gradientColor=#0066CC;fontSize=14;" vertex="1" parent="1">
          <mxGeometry x="1026" y="68.78" width="66" height="49.22" as="geometry" />
        </mxCell>
        <mxCell id="-dxQjDYS7bWkE5Er575O-42" style="edgeStyle=none;rounded=0;html=1;startSize=10;endSize=10;jettySize=auto;orthogonalLoop=1;fontSize=14;endArrow=none;endFill=0;strokeWidth=2;entryX=1.051;entryY=0.782;entryDx=0;entryDy=0;entryPerimeter=0;" edge="1" parent="1" source="-dxQjDYS7bWkE5Er575O-39" target="-dxQjDYS7bWkE5Er575O-41">
          <mxGeometry relative="1" as="geometry">
            <mxPoint x="1440" y="189" as="sourcePoint" />
            <mxPoint x="1573" y="226" as="targetPoint" />
          </mxGeometry>
        </mxCell>
        <mxCell id="-dxQjDYS7bWkE5Er575O-43" value="192.168.111.1" style="text;html=1;align=center;verticalAlign=middle;whiteSpace=wrap;rounded=0;" vertex="1" parent="1">
          <mxGeometry x="1131" y="118" width="60" height="30" as="geometry" />
        </mxCell>
        <mxCell id="-dxQjDYS7bWkE5Er575O-44" value="183.250.156.66" style="image;aspect=fixed;perimeter=ellipsePerimeter;html=1;align=center;shadow=0;dashed=0;spacingTop=3;image=img/lib/active_directory/firewall.svg;" vertex="1" parent="1">
          <mxGeometry x="982.0999999999999" y="185.99" width="50.5" height="82.79" as="geometry" />
        </mxCell>
        <mxCell id="-dxQjDYS7bWkE5Er575O-45" value="192.168.110.2" style="text;html=1;align=center;verticalAlign=middle;whiteSpace=wrap;rounded=0;" vertex="1" parent="1">
          <mxGeometry x="1040" y="195.6" width="60" height="30" as="geometry" />
        </mxCell>
        <mxCell id="-dxQjDYS7bWkE5Er575O-46" value="harbor-proxy&lt;div&gt;emqx&lt;/div&gt;" style="image;points=[];aspect=fixed;html=1;align=center;shadow=0;dashed=0;image=img/lib/allied_telesis/computer_and_terminals/Server_Desktop.svg;" vertex="1" parent="1">
          <mxGeometry x="207" y="168" width="42.599999999999994" height="54" as="geometry" />
        </mxCell>
        <mxCell id="-dxQjDYS7bWkE5Er575O-47" value="windows&lt;div&gt;SHM&lt;/div&gt;" style="image;points=[];aspect=fixed;html=1;align=center;shadow=0;dashed=0;image=img/lib/allied_telesis/computer_and_terminals/Server_Desktop.svg;" vertex="1" parent="1">
          <mxGeometry x="281" y="168" width="42.599999999999994" height="54" as="geometry" />
        </mxCell>
        <mxCell id="-dxQjDYS7bWkE5Er575O-48" value="k8s-master&lt;div&gt;rke2-server&lt;/div&gt;" style="image;points=[];aspect=fixed;html=1;align=center;shadow=0;dashed=0;image=img/lib/allied_telesis/computer_and_terminals/Server_Desktop.svg;" vertex="1" parent="1">
          <mxGeometry x="356" y="168" width="42.599999999999994" height="54" as="geometry" />
        </mxCell>
        <mxCell id="-dxQjDYS7bWkE5Er575O-49" value="k8s-node1" style="image;points=[];aspect=fixed;html=1;align=center;shadow=0;dashed=0;image=img/lib/allied_telesis/computer_and_terminals/Server_Desktop.svg;" vertex="1" parent="1">
          <mxGeometry x="430" y="168" width="42.599999999999994" height="54" as="geometry" />
        </mxCell>
        <mxCell id="-dxQjDYS7bWkE5Er575O-50" value="tdengine" style="image;points=[];aspect=fixed;html=1;align=center;shadow=0;dashed=0;image=img/lib/allied_telesis/computer_and_terminals/Server_Desktop.svg;" vertex="1" parent="1">
          <mxGeometry x="505" y="168" width="42.599999999999994" height="54" as="geometry" />
        </mxCell>
        <mxCell id="-dxQjDYS7bWkE5Er575O-51" value="mysql-redis-&lt;div&gt;rabbitmq&lt;/div&gt;" style="image;points=[];aspect=fixed;html=1;align=center;shadow=0;dashed=0;image=img/lib/allied_telesis/computer_and_terminals/Server_Desktop.svg;" vertex="1" parent="1">
          <mxGeometry x="579" y="168" width="42.6" height="54" as="geometry" />
        </mxCell>
        <mxCell id="-dxQjDYS7bWkE5Er575O-52" value="k8s-master&lt;div&gt;rke2-server&lt;/div&gt;" style="image;points=[];aspect=fixed;html=1;align=center;shadow=0;dashed=0;image=img/lib/allied_telesis/computer_and_terminals/Server_Desktop.svg;" vertex="1" parent="1">
          <mxGeometry x="234.6" y="321" width="42.599999999999994" height="54" as="geometry" />
        </mxCell>
        <mxCell id="-dxQjDYS7bWkE5Er575O-53" value="k8s-node1" style="image;points=[];aspect=fixed;html=1;align=center;shadow=0;dashed=0;image=img/lib/allied_telesis/computer_and_terminals/Server_Desktop.svg;" vertex="1" parent="1">
          <mxGeometry x="344" y="321" width="42.599999999999994" height="54" as="geometry" />
        </mxCell>
        <mxCell id="-dxQjDYS7bWkE5Er575O-54" value="demo-offshore" style="image;points=[];aspect=fixed;html=1;align=center;shadow=0;dashed=0;image=img/lib/allied_telesis/computer_and_terminals/Server_Desktop.svg;" vertex="1" parent="1">
          <mxGeometry x="454" y="321" width="42.599999999999994" height="54" as="geometry" />
        </mxCell>
        <mxCell id="-dxQjDYS7bWkE5Er575O-55" value="mysql-redis-nacos-&lt;div&gt;rabbitmq-tdengine&lt;/div&gt;" style="image;points=[];aspect=fixed;html=1;align=center;shadow=0;dashed=0;image=img/lib/allied_telesis/computer_and_terminals/Server_Desktop.svg;" vertex="1" parent="1">
          <mxGeometry x="564" y="321" width="42.6" height="54" as="geometry" />
        </mxCell>
        <mxCell id="-dxQjDYS7bWkE5Er575O-56" value="&lt;div&gt;kvm&lt;/div&gt;&lt;div&gt;192.168.110.233&lt;/div&gt;" style="image;points=[];aspect=fixed;html=1;align=center;shadow=0;dashed=0;image=img/lib/allied_telesis/computer_and_terminals/Server_Desktop.svg;" vertex="1" parent="1">
          <mxGeometry x="1602" y="168" width="42.599999999999994" height="54" as="geometry" />
        </mxCell>
        <mxCell id="-dxQjDYS7bWkE5Er575O-57" style="edgeStyle=none;rounded=0;html=1;startSize=10;endSize=10;jettySize=auto;orthogonalLoop=1;fontSize=14;endArrow=none;endFill=0;strokeWidth=2;exitX=0.93;exitY=0.328;exitDx=0;exitDy=0;exitPerimeter=0;" edge="1" parent="1" source="-dxQjDYS7bWkE5Er575O-14" target="-dxQjDYS7bWkE5Er575O-56">
          <mxGeometry relative="1" as="geometry">
            <mxPoint x="1234" y="239" as="sourcePoint" />
            <mxPoint x="1608" y="304" as="targetPoint" />
          </mxGeometry>
        </mxCell>
        <mxCell id="-dxQjDYS7bWkE5Er575O-58" value="&lt;div&gt;GPU&lt;/div&gt;&lt;div&gt;192.168.110.231&lt;/div&gt;" style="image;points=[];aspect=fixed;html=1;align=center;shadow=0;dashed=0;image=img/lib/allied_telesis/computer_and_terminals/Server_Desktop.svg;" vertex="1" parent="1">
          <mxGeometry x="1510" y="87.85" width="42.599999999999994" height="54" as="geometry" />
        </mxCell>
        <mxCell id="-dxQjDYS7bWkE5Er575O-59" style="edgeStyle=none;rounded=0;html=1;startSize=10;endSize=10;jettySize=auto;orthogonalLoop=1;fontSize=14;endArrow=none;endFill=0;strokeWidth=2;exitX=0.793;exitY=0.133;exitDx=0;exitDy=0;exitPerimeter=0;entryX=0.043;entryY=0.687;entryDx=0;entryDy=0;entryPerimeter=0;" edge="1" parent="1" source="-dxQjDYS7bWkE5Er575O-14" target="-dxQjDYS7bWkE5Er575O-58">
          <mxGeometry relative="1" as="geometry">
            <mxPoint x="1296" y="254" as="sourcePoint" />
            <mxPoint x="1612" y="208" as="targetPoint" />
          </mxGeometry>
        </mxCell>
        <mxCell id="-dxQjDYS7bWkE5Er575O-60" value="183.250.156.66" style="image;aspect=fixed;perimeter=ellipsePerimeter;html=1;align=center;shadow=0;dashed=0;spacingTop=3;image=img/lib/active_directory/firewall.svg;" vertex="1" parent="1">
          <mxGeometry x="1069" y="925.6" width="50.5" height="82.79" as="geometry" />
        </mxCell>
        <mxCell id="-dxQjDYS7bWkE5Er575O-61" value="192.168.100.1" style="text;html=1;align=center;verticalAlign=middle;whiteSpace=wrap;rounded=0;" vertex="1" parent="1">
          <mxGeometry x="1115.5" y="940" width="89" height="30" as="geometry" />
        </mxCell>
        <mxCell id="-dxQjDYS7bWkE5Er575O-62" value="192.168.1.254" style="text;html=1;align=center;verticalAlign=middle;whiteSpace=wrap;rounded=0;" vertex="1" parent="1">
          <mxGeometry x="1119.5" y="987" width="89" height="30" as="geometry" />
        </mxCell>
      </root>
    </mxGraphModel>
  </diagram>
</mxfile>
